<svg width="116" height="116" viewBox="0 0 116 116" fill="none" xmlns="http://www.w3.org/2000/svg">
<circle cx="58" cy="58" r="58" fill="#ECA419"/>
<path d="M57 97C50.1224 97 43.7643 95.3053 37.9258 91.916C32.0872 88.5267 27.4733 83.9128 24.084 78.0742C20.6947 72.2357 19 65.8776 19 59C19 52.1224 20.6947 45.7643 24.084 39.9258C27.4733 34.0872 32.0872 29.4733 37.9258 26.084C43.7643 22.6947 50.1224 21 57 21C63.8776 21 70.2357 22.6947 76.0742 26.084C81.9128 29.4733 86.5267 34.0872 89.916 39.9258C93.3053 45.7643 95 52.1224 95 59C95 65.8776 93.3053 72.2357 89.916 78.0742C86.5267 83.9128 81.9128 88.5267 76.0742 91.916C70.2357 95.3053 63.8776 97 57 97ZM23.75 59C23.75 63.5026 24.6035 67.7826 26.3105 71.8398C28.0176 75.8971 30.4049 79.4596 33.4727 82.5273L57 59V25.75C52.4974 25.75 48.1927 26.6283 44.0859 28.3848C39.9792 30.1413 36.4414 32.5039 33.4727 35.4727C30.5039 38.4414 28.1413 41.9792 26.3848 46.0859C24.6283 50.1927 23.75 54.4974 23.75 59Z" fill="white"/>
</svg>
